# xmcd
#
# Track frame offsets:
#	150
#	14323
#	28619
#	42518
#	60668
#	73809
#	87174
#	102439
#	114001
#	133434
#	148238
#	162818
#	178869
#	195794
#	211033
#	227119
#	241729
#	256538
#	270713
#	285661
#	301788
#	314698
#
# Disc length: 4410 seconds
#
# Revision: 0
# Processed by: cddbd v1.5.2PL0 Copyright (c) Steve Scherf et al.
# Submitted via: EasyCDDAExtractor 5.0.0.0
#
DISCID=32113816
DTITLE=Joao Fabio and Geraldi - Paixao Sertaneja - Ao Vivo
DYEAR=2008
DGENRE=Sertanejo 
TTITLE0=Trancos e Barrancos
TTITLE1=Precisp te encontrar
TTITLE2=Me leva pra casa
TTITLE3=Desejo de amar
TTITLE4=Ta faltando amor
TTITLE5=No mesmo lugar
TTITLE6=Liguei pra dizer que te amo
TTITLE7=Amor Rebelde
TTITLE8=Voce virou saudade
TTITLE9=Jogando a toalha
TTITLE10=Taca de pranto
TTITLE11=Voce em minha vida
TTITLE12=Doces palavras
TTITLE13=Pra la de Bagda
TTITLE14=Te cuida coracao
TTITLE15=Cacador de coracoes
TTITLE16=Olha amor
TTITLE17=Fazenda Sao francisco
TTITLE18=Musica da Saudade
TTITLE19=Baton Vermelho
TTITLE20=Rosto Molhado and Peao Apaixonado
TTITLE21=Eu me amarrei
EXTD=
EXTT0=
EXTT1=
EXTT2=
EXTT3=
EXTT4=
EXTT5=
EXTT6=
EXTT7=
EXTT8=
EXTT9=
EXTT10=
EXTT11=
EXTT12=
EXTT13=
EXTT14=
EXTT15=
EXTT16=
EXTT17=
EXTT18=
EXTT19=
EXTT20=
EXTT21=
PLAYORDER=
